<svg xmlns="http://www.w3.org/2000/svg" version="1.1" xmlns:xlink="http://www.w3.org/1999/xlink" xmlns:svgjs="http://svgjs.com/svgjs" width="1980" height="1080" preserveAspectRatio="none" viewBox="0 0 1980 1080"><g mask="url(&quot;#SvgjsMask1046&quot;)" fill="none"><path d="M48.03 159.87L112.98 197.37L112.98 272.37L48.03 309.87L-16.92 272.37L-16.92 197.37zM48.03 384.87L112.98 422.37L112.98 497.37L48.03 534.87L-16.92 497.37L-16.92 422.37zM112.98 722.37L177.94 759.87L177.94 834.87L112.98 872.37L48.03 834.87L48.03 759.87zM48.03 834.87L112.98 872.37L112.98 947.37L48.03 984.87L-16.92 947.37L-16.92 872.37zM48.03 1059.87L112.98 1097.37L112.98 1172.37L48.03 1209.87L-16.92 1172.37L-16.92 1097.37zM177.94 384.87L242.89 422.37L242.89 497.37L177.94 534.87L112.98 497.37L112.98 422.37zM177.94 609.87L242.89 647.37L242.89 722.37L177.94 759.87L112.98 722.37L112.98 647.37zM177.94 834.87L242.89 872.37L242.89 947.37L177.94 984.87L112.98 947.37L112.98 872.37zM242.89 947.37L307.85 984.87L307.85 1059.87L242.89 1097.37L177.94 1059.87L177.94 984.87zM307.85 -65.13L372.8 -27.63L372.8 47.37L307.85 84.87L242.89 47.37L242.89 -27.63zM372.8 47.37L437.75 84.87L437.75 159.87L372.8 197.37L307.85 159.87L307.85 84.87zM372.8 272.37L437.75 309.87L437.75 384.87L372.8 422.37L307.85 384.87L307.85 309.87zM307.85 384.87L372.8 422.37L372.8 497.37L307.85 534.87L242.89 497.37L242.89 422.37zM372.8 722.37L437.75 759.87L437.75 834.87L372.8 872.37L307.85 834.87L307.85 759.87zM372.8 947.37L437.75 984.87L437.75 1059.87L372.8 1097.37L307.85 1059.87L307.85 984.87zM307.85 1059.87L372.8 1097.37L372.8 1172.37L307.85 1209.87L242.89 1172.37L242.89 1097.37zM437.75 -65.13L502.71 -27.63L502.71 47.37L437.75 84.87L372.8 47.37L372.8 -27.63zM502.71 47.37L567.66 84.87L567.66 159.87L502.71 197.37L437.75 159.87L437.75 84.87zM437.75 159.87L502.71 197.37L502.71 272.37L437.75 309.87L372.8 272.37L372.8 197.37zM437.75 384.87L502.71 422.37L502.71 497.37L437.75 534.87L372.8 497.37L372.8 422.37zM502.71 722.37L567.66 759.87L567.66 834.87L502.71 872.37L437.75 834.87L437.75 759.87zM437.75 834.87L502.71 872.37L502.71 947.37L437.75 984.87L372.8 947.37L372.8 872.37zM437.75 1059.87L502.71 1097.37L502.71 1172.37L437.75 1209.87L372.8 1172.37L372.8 1097.37zM567.66 -65.13L632.61 -27.63L632.61 47.37L567.66 84.87L502.71 47.37L502.71 -27.63zM632.61 272.37L697.57 309.87L697.57 384.87L632.61 422.37L567.66 384.87L567.66 309.87zM567.66 384.87L632.61 422.37L632.61 497.37L567.66 534.87L502.71 497.37L502.71 422.37zM567.66 609.87L632.61 647.37L632.61 722.37L567.66 759.87L502.71 722.37L502.71 647.37zM632.61 722.37L697.57 759.87L697.57 834.87L632.61 872.37L567.66 834.87L567.66 759.87zM567.66 834.87L632.61 872.37L632.61 947.37L567.66 984.87L502.71 947.37L502.71 872.37zM762.52 47.37L827.48 84.87L827.48 159.87L762.52 197.37L697.57 159.87L697.57 84.87zM697.57 159.87L762.52 197.37L762.52 272.37L697.57 309.87L632.61 272.37L632.61 197.37zM762.52 722.37L827.48 759.87L827.48 834.87L762.52 872.37L697.57 834.87L697.57 759.87zM892.43 272.37L957.38 309.87L957.38 384.87L892.43 422.37L827.47 384.87L827.47 309.87zM827.47 609.87L892.43 647.37L892.43 722.37L827.47 759.87L762.52 722.37L762.52 647.37zM892.43 722.37L957.38 759.87L957.38 834.87L892.43 872.37L827.47 834.87L827.47 759.87zM892.43 947.37L957.38 984.87L957.38 1059.87L892.43 1097.37L827.47 1059.87L827.47 984.87zM827.47 1059.87L892.43 1097.37L892.43 1172.37L827.47 1209.87L762.52 1172.37L762.52 1097.37zM1022.34 272.37L1087.29 309.87L1087.29 384.87L1022.34 422.37L957.38 384.87L957.38 309.87zM1022.34 947.37L1087.29 984.87L1087.29 1059.87L1022.34 1097.37L957.38 1059.87L957.38 984.87zM957.38 1059.87L1022.34 1097.37L1022.34 1172.37L957.38 1209.87L892.43 1172.37L892.43 1097.37zM1087.29 -65.13L1152.24 -27.63L1152.24 47.37L1087.29 84.87L1022.34 47.37L1022.34 -27.63zM1152.24 272.37L1217.2 309.87L1217.2 384.87L1152.24 422.37L1087.29 384.87L1087.29 309.87zM1152.24 497.37L1217.2 534.87L1217.2 609.87L1152.24 647.37L1087.29 609.87L1087.29 534.87zM1152.24 722.37L1217.2 759.87L1217.2 834.87L1152.24 872.37L1087.29 834.87L1087.29 759.87zM1087.29 834.87L1152.24 872.37L1152.24 947.37L1087.29 984.87L1022.34 947.37L1022.34 872.37zM1152.24 947.37L1217.2 984.87L1217.2 1059.87L1152.24 1097.37L1087.29 1059.87L1087.29 984.87zM1087.29 1059.87L1152.24 1097.37L1152.24 1172.37L1087.29 1209.87L1022.34 1172.37L1022.34 1097.37zM1282.15 47.37L1347.1 84.87L1347.1 159.87L1282.15 197.37L1217.2 159.87L1217.2 84.87zM1217.2 159.87L1282.15 197.37L1282.15 272.37L1217.2 309.87L1152.24 272.37L1152.24 197.37zM1217.2 384.87L1282.15 422.37L1282.15 497.37L1217.2 534.87L1152.24 497.37L1152.24 422.37zM1282.15 497.37L1347.1 534.87L1347.1 609.87L1282.15 647.37L1217.2 609.87L1217.2 534.87zM1217.2 834.87L1282.15 872.37L1282.15 947.37L1217.2 984.87L1152.24 947.37L1152.24 872.37zM1282.15 947.37L1347.1 984.87L1347.1 1059.87L1282.15 1097.37L1217.2 1059.87L1217.2 984.87zM1217.2 1059.87L1282.15 1097.37L1282.15 1172.37L1217.2 1209.87L1152.24 1172.37L1152.24 1097.37zM1412.06 47.37L1477.01 84.87L1477.01 159.87L1412.06 197.37L1347.11 159.87L1347.11 84.87zM1347.11 609.87L1412.06 647.37L1412.06 722.37L1347.11 759.87L1282.15 722.37L1282.15 647.37zM1347.11 1059.87L1412.06 1097.37L1412.06 1172.37L1347.11 1209.87L1282.15 1172.37L1282.15 1097.37zM1541.97 47.37L1606.92 84.87L1606.92 159.87L1541.97 197.37L1477.01 159.87L1477.01 84.87zM1477.01 159.87L1541.97 197.37L1541.97 272.37L1477.01 309.87L1412.06 272.37L1412.06 197.37zM1541.97 272.37L1606.92 309.87L1606.92 384.87L1541.97 422.37L1477.01 384.87L1477.01 309.87zM1477.01 384.87L1541.97 422.37L1541.97 497.37L1477.01 534.87L1412.06 497.37L1412.06 422.37zM1477.01 609.87L1541.97 647.37L1541.97 722.37L1477.01 759.87L1412.06 722.37L1412.06 647.37zM1541.97 947.37L1606.92 984.87L1606.92 1059.87L1541.97 1097.37L1477.01 1059.87L1477.01 984.87zM1477.01 1059.87L1541.97 1097.37L1541.97 1172.37L1477.01 1209.87L1412.06 1172.37L1412.06 1097.37zM1606.92 159.87L1671.87 197.37L1671.87 272.37L1606.92 309.87L1541.97 272.37L1541.97 197.37zM1606.92 609.87L1671.87 647.37L1671.87 722.37L1606.92 759.87L1541.97 722.37L1541.97 647.37zM1606.92 834.87L1671.87 872.37L1671.87 947.37L1606.92 984.87L1541.97 947.37L1541.97 872.37zM1736.83 -65.13L1801.78 -27.63L1801.78 47.37L1736.83 84.87L1671.87 47.37L1671.87 -27.63zM1801.78 47.37L1866.73 84.87L1866.73 159.87L1801.78 197.37L1736.83 159.87L1736.83 84.87zM1801.78 272.37L1866.73 309.87L1866.73 384.87L1801.78 422.37L1736.83 384.87L1736.83 309.87zM1801.78 497.37L1866.73 534.87L1866.73 609.87L1801.78 647.37L1736.83 609.87L1736.83 534.87zM1736.83 609.87L1801.78 647.37L1801.78 722.37L1736.83 759.87L1671.87 722.37L1671.87 647.37zM1801.78 722.37L1866.73 759.87L1866.73 834.87L1801.78 872.37L1736.83 834.87L1736.83 759.87zM1736.83 834.87L1801.78 872.37L1801.78 947.37L1736.83 984.87L1671.87 947.37L1671.87 872.37zM1801.78 947.37L1866.73 984.87L1866.73 1059.87L1801.78 1097.37L1736.83 1059.87L1736.83 984.87zM1736.83 1059.87L1801.78 1097.37L1801.78 1172.37L1736.83 1209.87L1671.87 1172.37L1671.87 1097.37zM1866.73 -65.13L1931.69 -27.63L1931.69 47.37L1866.73 84.87L1801.78 47.37L1801.78 -27.63zM1931.69 272.37L1996.64 309.87L1996.64 384.87L1931.69 422.37L1866.73 384.87L1866.73 309.87zM1866.73 384.87L1931.69 422.37L1931.69 497.37L1866.73 534.87L1801.78 497.37L1801.78 422.37zM1931.69 497.37L1996.64 534.87L1996.64 609.87L1931.69 647.37L1866.73 609.87L1866.73 534.87zM1866.73 609.87L1931.69 647.37L1931.69 722.37L1866.73 759.87L1801.78 722.37L1801.78 647.37zM1866.73 834.87L1931.69 872.37L1931.69 947.37L1866.73 984.87L1801.78 947.37L1801.78 872.37zM1931.69 947.37L1996.64 984.87L1996.64 1059.87L1931.69 1097.37L1866.73 1059.87L1866.73 984.87zM1996.64 -65.13L2061.6 -27.63L2061.6 47.37L1996.64 84.87L1931.69 47.37L1931.69 -27.63zM1996.64 159.87L2061.6 197.37L2061.6 272.37L1996.64 309.87L1931.69 272.37L1931.69 197.37zM2061.6 272.37L2126.55 309.87L2126.55 384.87L2061.6 422.37L1996.64 384.87L1996.64 309.87zM1996.64 609.87L2061.6 647.37L2061.6 722.37L1996.64 759.87L1931.69 722.37L1931.69 647.37zM1996.64 1059.87L2061.6 1097.37L2061.6 1172.37L1996.64 1209.87L1931.69 1172.37L1931.69 1097.37z" stroke="rgba(236, 239, 244, 0.37)" stroke-width="2"></path><path d="M40.53 159.87 a7.5 7.5 0 1 0 15 0 a7.5 7.5 0 1 0 -15 0zM105.48 197.37 a7.5 7.5 0 1 0 15 0 a7.5 7.5 0 1 0 -15 0zM105.48 272.37 a7.5 7.5 0 1 0 15 0 a7.5 7.5 0 1 0 -15 0zM40.53 309.87 a7.5 7.5 0 1 0 15 0 a7.5 7.5 0 1 0 -15 0zM-24.42 272.37 a7.5 7.5 0 1 0 15 0 a7.5 7.5 0 1 0 -15 0zM-24.42 197.37 a7.5 7.5 0 1 0 15 0 a7.5 7.5 0 1 0 -15 0zM40.53 384.87 a7.5 7.5 0 1 0 15 0 a7.5 7.5 0 1 0 -15 0zM105.48 422.37 a7.5 7.5 0 1 0 15 0 a7.5 7.5 0 1 0 -15 0zM105.48 497.37 a7.5 7.5 0 1 0 15 0 a7.5 7.5 0 1 0 -15 0zM40.53 534.87 a7.5 7.5 0 1 0 15 0 a7.5 7.5 0 1 0 -15 0zM-24.42 497.37 a7.5 7.5 0 1 0 15 0 a7.5 7.5 0 1 0 -15 0zM-24.42 422.37 a7.5 7.5 0 1 0 15 0 a7.5 7.5 0 1 0 -15 0zM105.48 722.37 a7.5 7.5 0 1 0 15 0 a7.5 7.5 0 1 0 -15 0zM170.44 759.87 a7.5 7.5 0 1 0 15 0 a7.5 7.5 0 1 0 -15 0zM170.44 834.87 a7.5 7.5 0 1 0 15 0 a7.5 7.5 0 1 0 -15 0zM105.48 872.37 a7.5 7.5 0 1 0 15 0 a7.5 7.5 0 1 0 -15 0zM40.53 834.87 a7.5 7.5 0 1 0 15 0 a7.5 7.5 0 1 0 -15 0zM40.53 759.87 a7.5 7.5 0 1 0 15 0 a7.5 7.5 0 1 0 -15 0zM105.48 947.37 a7.5 7.5 0 1 0 15 0 a7.5 7.5 0 1 0 -15 0zM40.53 984.87 a7.5 7.5 0 1 0 15 0 a7.5 7.5 0 1 0 -15 0zM-24.42 947.37 a7.5 7.5 0 1 0 15 0 a7.5 7.5 0 1 0 -15 0zM-24.42 872.37 a7.5 7.5 0 1 0 15 0 a7.5 7.5 0 1 0 -15 0zM40.53 1059.87 a7.5 7.5 0 1 0 15 0 a7.5 7.5 0 1 0 -15 0zM105.48 1097.37 a7.5 7.5 0 1 0 15 0 a7.5 7.5 0 1 0 -15 0zM105.48 1172.37 a7.5 7.5 0 1 0 15 0 a7.5 7.5 0 1 0 -15 0zM40.53 1209.87 a7.5 7.5 0 1 0 15 0 a7.5 7.5 0 1 0 -15 0zM-24.42 1172.37 a7.5 7.5 0 1 0 15 0 a7.5 7.5 0 1 0 -15 0zM-24.42 1097.37 a7.5 7.5 0 1 0 15 0 a7.5 7.5 0 1 0 -15 0zM170.44 384.87 a7.5 7.5 0 1 0 15 0 a7.5 7.5 0 1 0 -15 0zM235.39 422.37 a7.5 7.5 0 1 0 15 0 a7.5 7.5 0 1 0 -15 0zM235.39 497.37 a7.5 7.5 0 1 0 15 0 a7.5 7.5 0 1 0 -15 0zM170.44 534.87 a7.5 7.5 0 1 0 15 0 a7.5 7.5 0 1 0 -15 0zM170.44 609.87 a7.5 7.5 0 1 0 15 0 a7.5 7.5 0 1 0 -15 0zM235.39 647.37 a7.5 7.5 0 1 0 15 0 a7.5 7.5 0 1 0 -15 0zM235.39 722.37 a7.5 7.5 0 1 0 15 0 a7.5 7.5 0 1 0 -15 0zM105.48 647.37 a7.5 7.5 0 1 0 15 0 a7.5 7.5 0 1 0 -15 0zM235.39 872.37 a7.5 7.5 0 1 0 15 0 a7.5 7.5 0 1 0 -15 0zM235.39 947.37 a7.5 7.5 0 1 0 15 0 a7.5 7.5 0 1 0 -15 0zM170.44 984.87 a7.5 7.5 0 1 0 15 0 a7.5 7.5 0 1 0 -15 0zM300.35 984.87 a7.5 7.5 0 1 0 15 0 a7.5 7.5 0 1 0 -15 0zM300.35 1059.87 a7.5 7.5 0 1 0 15 0 a7.5 7.5 0 1 0 -15 0zM235.39 1097.37 a7.5 7.5 0 1 0 15 0 a7.5 7.5 0 1 0 -15 0zM170.44 1059.87 a7.5 7.5 0 1 0 15 0 a7.5 7.5 0 1 0 -15 0zM300.35 -65.13 a7.5 7.5 0 1 0 15 0 a7.5 7.5 0 1 0 -15 0zM365.3 -27.63 a7.5 7.5 0 1 0 15 0 a7.5 7.5 0 1 0 -15 0zM365.3 47.37 a7.5 7.5 0 1 0 15 0 a7.5 7.5 0 1 0 -15 0zM300.35 84.87 a7.5 7.5 0 1 0 15 0 a7.5 7.5 0 1 0 -15 0zM235.39 47.37 a7.5 7.5 0 1 0 15 0 a7.5 7.5 0 1 0 -15 0zM235.39 -27.63 a7.5 7.5 0 1 0 15 0 a7.5 7.5 0 1 0 -15 0zM430.25 84.87 a7.5 7.5 0 1 0 15 0 a7.5 7.5 0 1 0 -15 0zM430.25 159.87 a7.5 7.5 0 1 0 15 0 a7.5 7.5 0 1 0 -15 0zM365.3 197.37 a7.5 7.5 0 1 0 15 0 a7.5 7.5 0 1 0 -15 0zM300.35 159.87 a7.5 7.5 0 1 0 15 0 a7.5 7.5 0 1 0 -15 0zM365.3 272.37 a7.5 7.5 0 1 0 15 0 a7.5 7.5 0 1 0 -15 0zM430.25 309.87 a7.5 7.5 0 1 0 15 0 a7.5 7.5 0 1 0 -15 0zM430.25 384.87 a7.5 7.5 0 1 0 15 0 a7.5 7.5 0 1 0 -15 0zM365.3 422.37 a7.5 7.5 0 1 0 15 0 a7.5 7.5 0 1 0 -15 0zM300.35 384.87 a7.5 7.5 0 1 0 15 0 a7.5 7.5 0 1 0 -15 0zM300.35 309.87 a7.5 7.5 0 1 0 15 0 a7.5 7.5 0 1 0 -15 0zM365.3 497.37 a7.5 7.5 0 1 0 15 0 a7.5 7.5 0 1 0 -15 0zM300.35 534.87 a7.5 7.5 0 1 0 15 0 a7.5 7.5 0 1 0 -15 0zM365.3 722.37 a7.5 7.5 0 1 0 15 0 a7.5 7.5 0 1 0 -15 0zM430.25 759.87 a7.5 7.5 0 1 0 15 0 a7.5 7.5 0 1 0 -15 0zM430.25 834.87 a7.5 7.5 0 1 0 15 0 a7.5 7.5 0 1 0 -15 0zM365.3 872.37 a7.5 7.5 0 1 0 15 0 a7.5 7.5 0 1 0 -15 0zM300.35 834.87 a7.5 7.5 0 1 0 15 0 a7.5 7.5 0 1 0 -15 0zM300.35 759.87 a7.5 7.5 0 1 0 15 0 a7.5 7.5 0 1 0 -15 0zM365.3 947.37 a7.5 7.5 0 1 0 15 0 a7.5 7.5 0 1 0 -15 0zM430.25 984.87 a7.5 7.5 0 1 0 15 0 a7.5 7.5 0 1 0 -15 0zM430.25 1059.87 a7.5 7.5 0 1 0 15 0 a7.5 7.5 0 1 0 -15 0zM365.3 1097.37 a7.5 7.5 0 1 0 15 0 a7.5 7.5 0 1 0 -15 0zM365.3 1172.37 a7.5 7.5 0 1 0 15 0 a7.5 7.5 0 1 0 -15 0zM300.35 1209.87 a7.5 7.5 0 1 0 15 0 a7.5 7.5 0 1 0 -15 0zM235.39 1172.37 a7.5 7.5 0 1 0 15 0 a7.5 7.5 0 1 0 -15 0zM430.25 -65.13 a7.5 7.5 0 1 0 15 0 a7.5 7.5 0 1 0 -15 0zM495.21 -27.63 a7.5 7.5 0 1 0 15 0 a7.5 7.5 0 1 0 -15 0zM495.21 47.37 a7.5 7.5 0 1 0 15 0 a7.5 7.5 0 1 0 -15 0zM560.16 84.87 a7.5 7.5 0 1 0 15 0 a7.5 7.5 0 1 0 -15 0zM560.16 159.87 a7.5 7.5 0 1 0 15 0 a7.5 7.5 0 1 0 -15 0zM495.21 197.37 a7.5 7.5 0 1 0 15 0 a7.5 7.5 0 1 0 -15 0zM495.21 272.37 a7.5 7.5 0 1 0 15 0 a7.5 7.5 0 1 0 -15 0zM495.21 422.37 a7.5 7.5 0 1 0 15 0 a7.5 7.5 0 1 0 -15 0zM495.21 497.37 a7.5 7.5 0 1 0 15 0 a7.5 7.5 0 1 0 -15 0zM430.25 534.87 a7.5 7.5 0 1 0 15 0 a7.5 7.5 0 1 0 -15 0zM495.21 722.37 a7.5 7.5 0 1 0 15 0 a7.5 7.5 0 1 0 -15 0zM560.16 759.87 a7.5 7.5 0 1 0 15 0 a7.5 7.5 0 1 0 -15 0zM560.16 834.87 a7.5 7.5 0 1 0 15 0 a7.5 7.5 0 1 0 -15 0zM495.21 872.37 a7.5 7.5 0 1 0 15 0 a7.5 7.5 0 1 0 -15 0zM495.21 947.37 a7.5 7.5 0 1 0 15 0 a7.5 7.5 0 1 0 -15 0zM495.21 1097.37 a7.5 7.5 0 1 0 15 0 a7.5 7.5 0 1 0 -15 0zM495.21 1172.37 a7.5 7.5 0 1 0 15 0 a7.5 7.5 0 1 0 -15 0zM430.25 1209.87 a7.5 7.5 0 1 0 15 0 a7.5 7.5 0 1 0 -15 0zM560.16 -65.13 a7.5 7.5 0 1 0 15 0 a7.5 7.5 0 1 0 -15 0zM625.11 -27.63 a7.5 7.5 0 1 0 15 0 a7.5 7.5 0 1 0 -15 0zM625.11 47.37 a7.5 7.5 0 1 0 15 0 a7.5 7.5 0 1 0 -15 0zM625.11 272.37 a7.5 7.5 0 1 0 15 0 a7.5 7.5 0 1 0 -15 0zM690.07 309.87 a7.5 7.5 0 1 0 15 0 a7.5 7.5 0 1 0 -15 0zM690.07 384.87 a7.5 7.5 0 1 0 15 0 a7.5 7.5 0 1 0 -15 0zM625.11 422.37 a7.5 7.5 0 1 0 15 0 a7.5 7.5 0 1 0 -15 0zM560.16 384.87 a7.5 7.5 0 1 0 15 0 a7.5 7.5 0 1 0 -15 0zM560.16 309.87 a7.5 7.5 0 1 0 15 0 a7.5 7.5 0 1 0 -15 0zM625.11 497.37 a7.5 7.5 0 1 0 15 0 a7.5 7.5 0 1 0 -15 0zM560.16 534.87 a7.5 7.5 0 1 0 15 0 a7.5 7.5 0 1 0 -15 0zM560.16 609.87 a7.5 7.5 0 1 0 15 0 a7.5 7.5 0 1 0 -15 0zM625.11 647.37 a7.5 7.5 0 1 0 15 0 a7.5 7.5 0 1 0 -15 0zM625.11 722.37 a7.5 7.5 0 1 0 15 0 a7.5 7.5 0 1 0 -15 0zM495.21 647.37 a7.5 7.5 0 1 0 15 0 a7.5 7.5 0 1 0 -15 0zM690.07 759.87 a7.5 7.5 0 1 0 15 0 a7.5 7.5 0 1 0 -15 0zM690.07 834.87 a7.5 7.5 0 1 0 15 0 a7.5 7.5 0 1 0 -15 0zM625.11 872.37 a7.5 7.5 0 1 0 15 0 a7.5 7.5 0 1 0 -15 0zM625.11 947.37 a7.5 7.5 0 1 0 15 0 a7.5 7.5 0 1 0 -15 0zM560.16 984.87 a7.5 7.5 0 1 0 15 0 a7.5 7.5 0 1 0 -15 0zM755.02 47.37 a7.5 7.5 0 1 0 15 0 a7.5 7.5 0 1 0 -15 0zM819.98 84.87 a7.5 7.5 0 1 0 15 0 a7.5 7.5 0 1 0 -15 0zM819.98 159.87 a7.5 7.5 0 1 0 15 0 a7.5 7.5 0 1 0 -15 0zM755.02 197.37 a7.5 7.5 0 1 0 15 0 a7.5 7.5 0 1 0 -15 0zM690.07 159.87 a7.5 7.5 0 1 0 15 0 a7.5 7.5 0 1 0 -15 0zM690.07 84.87 a7.5 7.5 0 1 0 15 0 a7.5 7.5 0 1 0 -15 0zM755.02 272.37 a7.5 7.5 0 1 0 15 0 a7.5 7.5 0 1 0 -15 0zM625.11 197.37 a7.5 7.5 0 1 0 15 0 a7.5 7.5 0 1 0 -15 0zM755.02 722.37 a7.5 7.5 0 1 0 15 0 a7.5 7.5 0 1 0 -15 0zM819.98 759.87 a7.5 7.5 0 1 0 15 0 a7.5 7.5 0 1 0 -15 0zM819.98 834.87 a7.5 7.5 0 1 0 15 0 a7.5 7.5 0 1 0 -15 0zM755.02 872.37 a7.5 7.5 0 1 0 15 0 a7.5 7.5 0 1 0 -15 0zM884.93 272.37 a7.5 7.5 0 1 0 15 0 a7.5 7.5 0 1 0 -15 0zM949.88 309.87 a7.5 7.5 0 1 0 15 0 a7.5 7.5 0 1 0 -15 0zM949.88 384.87 a7.5 7.5 0 1 0 15 0 a7.5 7.5 0 1 0 -15 0zM884.93 422.37 a7.5 7.5 0 1 0 15 0 a7.5 7.5 0 1 0 -15 0zM819.97 384.87 a7.5 7.5 0 1 0 15 0 a7.5 7.5 0 1 0 -15 0zM819.97 309.87 a7.5 7.5 0 1 0 15 0 a7.5 7.5 0 1 0 -15 0zM819.97 609.87 a7.5 7.5 0 1 0 15 0 a7.5 7.5 0 1 0 -15 0zM884.93 647.37 a7.5 7.5 0 1 0 15 0 a7.5 7.5 0 1 0 -15 0zM884.93 722.37 a7.5 7.5 0 1 0 15 0 a7.5 7.5 0 1 0 -15 0zM819.97 759.87 a7.5 7.5 0 1 0 15 0 a7.5 7.5 0 1 0 -15 0zM755.02 647.37 a7.5 7.5 0 1 0 15 0 a7.5 7.5 0 1 0 -15 0zM949.88 759.87 a7.5 7.5 0 1 0 15 0 a7.5 7.5 0 1 0 -15 0zM949.88 834.87 a7.5 7.5 0 1 0 15 0 a7.5 7.5 0 1 0 -15 0zM884.93 872.37 a7.5 7.5 0 1 0 15 0 a7.5 7.5 0 1 0 -15 0zM819.97 834.87 a7.5 7.5 0 1 0 15 0 a7.5 7.5 0 1 0 -15 0zM884.93 947.37 a7.5 7.5 0 1 0 15 0 a7.5 7.5 0 1 0 -15 0zM949.88 984.87 a7.5 7.5 0 1 0 15 0 a7.5 7.5 0 1 0 -15 0zM949.88 1059.87 a7.5 7.5 0 1 0 15 0 a7.5 7.5 0 1 0 -15 0zM884.93 1097.37 a7.5 7.5 0 1 0 15 0 a7.5 7.5 0 1 0 -15 0zM819.97 1059.87 a7.5 7.5 0 1 0 15 0 a7.5 7.5 0 1 0 -15 0zM819.97 984.87 a7.5 7.5 0 1 0 15 0 a7.5 7.5 0 1 0 -15 0zM884.93 1172.37 a7.5 7.5 0 1 0 15 0 a7.5 7.5 0 1 0 -15 0zM819.97 1209.87 a7.5 7.5 0 1 0 15 0 a7.5 7.5 0 1 0 -15 0zM755.02 1172.37 a7.5 7.5 0 1 0 15 0 a7.5 7.5 0 1 0 -15 0zM755.02 1097.37 a7.5 7.5 0 1 0 15 0 a7.5 7.5 0 1 0 -15 0zM1014.84 272.37 a7.5 7.5 0 1 0 15 0 a7.5 7.5 0 1 0 -15 0zM1079.79 309.87 a7.5 7.5 0 1 0 15 0 a7.5 7.5 0 1 0 -15 0zM1079.79 384.87 a7.5 7.5 0 1 0 15 0 a7.5 7.5 0 1 0 -15 0zM1014.84 422.37 a7.5 7.5 0 1 0 15 0 a7.5 7.5 0 1 0 -15 0zM1014.84 947.37 a7.5 7.5 0 1 0 15 0 a7.5 7.5 0 1 0 -15 0zM1079.79 984.87 a7.5 7.5 0 1 0 15 0 a7.5 7.5 0 1 0 -15 0zM1079.79 1059.87 a7.5 7.5 0 1 0 15 0 a7.5 7.5 0 1 0 -15 0zM1014.84 1097.37 a7.5 7.5 0 1 0 15 0 a7.5 7.5 0 1 0 -15 0zM1014.84 1172.37 a7.5 7.5 0 1 0 15 0 a7.5 7.5 0 1 0 -15 0zM949.88 1209.87 a7.5 7.5 0 1 0 15 0 a7.5 7.5 0 1 0 -15 0zM1079.79 -65.13 a7.5 7.5 0 1 0 15 0 a7.5 7.5 0 1 0 -15 0zM1144.74 -27.63 a7.5 7.5 0 1 0 15 0 a7.5 7.5 0 1 0 -15 0zM1144.74 47.37 a7.5 7.5 0 1 0 15 0 a7.5 7.5 0 1 0 -15 0zM1079.79 84.87 a7.5 7.5 0 1 0 15 0 a7.5 7.5 0 1 0 -15 0zM1014.84 47.37 a7.5 7.5 0 1 0 15 0 a7.5 7.5 0 1 0 -15 0zM1014.84 -27.63 a7.5 7.5 0 1 0 15 0 a7.5 7.5 0 1 0 -15 0zM1144.74 272.37 a7.5 7.5 0 1 0 15 0 a7.5 7.5 0 1 0 -15 0zM1209.7 309.87 a7.5 7.5 0 1 0 15 0 a7.5 7.5 0 1 0 -15 0zM1209.7 384.87 a7.5 7.5 0 1 0 15 0 a7.5 7.5 0 1 0 -15 0zM1144.74 422.37 a7.5 7.5 0 1 0 15 0 a7.5 7.5 0 1 0 -15 0zM1144.74 497.37 a7.5 7.5 0 1 0 15 0 a7.5 7.5 0 1 0 -15 0zM1209.7 534.87 a7.5 7.5 0 1 0 15 0 a7.5 7.5 0 1 0 -15 0zM1209.7 609.87 a7.5 7.5 0 1 0 15 0 a7.5 7.5 0 1 0 -15 0zM1144.74 647.37 a7.5 7.5 0 1 0 15 0 a7.5 7.5 0 1 0 -15 0zM1079.79 609.87 a7.5 7.5 0 1 0 15 0 a7.5 7.5 0 1 0 -15 0zM1079.79 534.87 a7.5 7.5 0 1 0 15 0 a7.5 7.5 0 1 0 -15 0zM1144.74 722.37 a7.5 7.5 0 1 0 15 0 a7.5 7.5 0 1 0 -15 0zM1209.7 759.87 a7.5 7.5 0 1 0 15 0 a7.5 7.5 0 1 0 -15 0zM1209.7 834.87 a7.5 7.5 0 1 0 15 0 a7.5 7.5 0 1 0 -15 0zM1144.74 872.37 a7.5 7.5 0 1 0 15 0 a7.5 7.5 0 1 0 -15 0zM1079.79 834.87 a7.5 7.5 0 1 0 15 0 a7.5 7.5 0 1 0 -15 0zM1079.79 759.87 a7.5 7.5 0 1 0 15 0 a7.5 7.5 0 1 0 -15 0zM1144.74 947.37 a7.5 7.5 0 1 0 15 0 a7.5 7.5 0 1 0 -15 0zM1014.84 872.37 a7.5 7.5 0 1 0 15 0 a7.5 7.5 0 1 0 -15 0zM1209.7 984.87 a7.5 7.5 0 1 0 15 0 a7.5 7.5 0 1 0 -15 0zM1209.7 1059.87 a7.5 7.5 0 1 0 15 0 a7.5 7.5 0 1 0 -15 0zM1144.74 1097.37 a7.5 7.5 0 1 0 15 0 a7.5 7.5 0 1 0 -15 0zM1144.74 1172.37 a7.5 7.5 0 1 0 15 0 a7.5 7.5 0 1 0 -15 0zM1079.79 1209.87 a7.5 7.5 0 1 0 15 0 a7.5 7.5 0 1 0 -15 0zM1274.65 47.37 a7.5 7.5 0 1 0 15 0 a7.5 7.5 0 1 0 -15 0zM1339.6 84.87 a7.5 7.5 0 1 0 15 0 a7.5 7.5 0 1 0 -15 0zM1339.6 159.87 a7.5 7.5 0 1 0 15 0 a7.5 7.5 0 1 0 -15 0zM1274.65 197.37 a7.5 7.5 0 1 0 15 0 a7.5 7.5 0 1 0 -15 0zM1209.7 159.87 a7.5 7.5 0 1 0 15 0 a7.5 7.5 0 1 0 -15 0zM1209.7 84.87 a7.5 7.5 0 1 0 15 0 a7.5 7.5 0 1 0 -15 0zM1274.65 272.37 a7.5 7.5 0 1 0 15 0 a7.5 7.5 0 1 0 -15 0zM1144.74 197.37 a7.5 7.5 0 1 0 15 0 a7.5 7.5 0 1 0 -15 0zM1274.65 422.37 a7.5 7.5 0 1 0 15 0 a7.5 7.5 0 1 0 -15 0zM1274.65 497.37 a7.5 7.5 0 1 0 15 0 a7.5 7.5 0 1 0 -15 0zM1339.6 534.87 a7.5 7.5 0 1 0 15 0 a7.5 7.5 0 1 0 -15 0zM1339.6 609.87 a7.5 7.5 0 1 0 15 0 a7.5 7.5 0 1 0 -15 0zM1274.65 647.37 a7.5 7.5 0 1 0 15 0 a7.5 7.5 0 1 0 -15 0zM1274.65 872.37 a7.5 7.5 0 1 0 15 0 a7.5 7.5 0 1 0 -15 0zM1274.65 947.37 a7.5 7.5 0 1 0 15 0 a7.5 7.5 0 1 0 -15 0zM1339.6 984.87 a7.5 7.5 0 1 0 15 0 a7.5 7.5 0 1 0 -15 0zM1339.6 1059.87 a7.5 7.5 0 1 0 15 0 a7.5 7.5 0 1 0 -15 0zM1274.65 1097.37 a7.5 7.5 0 1 0 15 0 a7.5 7.5 0 1 0 -15 0zM1274.65 1172.37 a7.5 7.5 0 1 0 15 0 a7.5 7.5 0 1 0 -15 0zM1209.7 1209.87 a7.5 7.5 0 1 0 15 0 a7.5 7.5 0 1 0 -15 0zM1404.56 47.37 a7.5 7.5 0 1 0 15 0 a7.5 7.5 0 1 0 -15 0zM1469.51 84.87 a7.5 7.5 0 1 0 15 0 a7.5 7.5 0 1 0 -15 0zM1469.51 159.87 a7.5 7.5 0 1 0 15 0 a7.5 7.5 0 1 0 -15 0zM1404.56 197.37 a7.5 7.5 0 1 0 15 0 a7.5 7.5 0 1 0 -15 0zM1339.61 159.87 a7.5 7.5 0 1 0 15 0 a7.5 7.5 0 1 0 -15 0zM1339.61 84.87 a7.5 7.5 0 1 0 15 0 a7.5 7.5 0 1 0 -15 0zM1339.61 609.87 a7.5 7.5 0 1 0 15 0 a7.5 7.5 0 1 0 -15 0zM1404.56 647.37 a7.5 7.5 0 1 0 15 0 a7.5 7.5 0 1 0 -15 0zM1404.56 722.37 a7.5 7.5 0 1 0 15 0 a7.5 7.5 0 1 0 -15 0zM1339.61 759.87 a7.5 7.5 0 1 0 15 0 a7.5 7.5 0 1 0 -15 0zM1274.65 722.37 a7.5 7.5 0 1 0 15 0 a7.5 7.5 0 1 0 -15 0zM1339.61 1059.87 a7.5 7.5 0 1 0 15 0 a7.5 7.5 0 1 0 -15 0zM1404.56 1097.37 a7.5 7.5 0 1 0 15 0 a7.5 7.5 0 1 0 -15 0zM1404.56 1172.37 a7.5 7.5 0 1 0 15 0 a7.5 7.5 0 1 0 -15 0zM1339.61 1209.87 a7.5 7.5 0 1 0 15 0 a7.5 7.5 0 1 0 -15 0zM1534.47 47.37 a7.5 7.5 0 1 0 15 0 a7.5 7.5 0 1 0 -15 0zM1599.42 84.87 a7.5 7.5 0 1 0 15 0 a7.5 7.5 0 1 0 -15 0zM1599.42 159.87 a7.5 7.5 0 1 0 15 0 a7.5 7.5 0 1 0 -15 0zM1534.47 197.37 a7.5 7.5 0 1 0 15 0 a7.5 7.5 0 1 0 -15 0zM1534.47 272.37 a7.5 7.5 0 1 0 15 0 a7.5 7.5 0 1 0 -15 0zM1469.51 309.87 a7.5 7.5 0 1 0 15 0 a7.5 7.5 0 1 0 -15 0zM1404.56 272.37 a7.5 7.5 0 1 0 15 0 a7.5 7.5 0 1 0 -15 0zM1599.42 309.87 a7.5 7.5 0 1 0 15 0 a7.5 7.5 0 1 0 -15 0zM1599.42 384.87 a7.5 7.5 0 1 0 15 0 a7.5 7.5 0 1 0 -15 0zM1534.47 422.37 a7.5 7.5 0 1 0 15 0 a7.5 7.5 0 1 0 -15 0zM1469.51 384.87 a7.5 7.5 0 1 0 15 0 a7.5 7.5 0 1 0 -15 0zM1534.47 497.37 a7.5 7.5 0 1 0 15 0 a7.5 7.5 0 1 0 -15 0zM1469.51 534.87 a7.5 7.5 0 1 0 15 0 a7.5 7.5 0 1 0 -15 0zM1404.56 497.37 a7.5 7.5 0 1 0 15 0 a7.5 7.5 0 1 0 -15 0zM1404.56 422.37 a7.5 7.5 0 1 0 15 0 a7.5 7.5 0 1 0 -15 0zM1469.51 609.87 a7.5 7.5 0 1 0 15 0 a7.5 7.5 0 1 0 -15 0zM1534.47 647.37 a7.5 7.5 0 1 0 15 0 a7.5 7.5 0 1 0 -15 0zM1534.47 722.37 a7.5 7.5 0 1 0 15 0 a7.5 7.5 0 1 0 -15 0zM1469.51 759.87 a7.5 7.5 0 1 0 15 0 a7.5 7.5 0 1 0 -15 0zM1534.47 947.37 a7.5 7.5 0 1 0 15 0 a7.5 7.5 0 1 0 -15 0zM1599.42 984.87 a7.5 7.5 0 1 0 15 0 a7.5 7.5 0 1 0 -15 0zM1599.42 1059.87 a7.5 7.5 0 1 0 15 0 a7.5 7.5 0 1 0 -15 0zM1534.47 1097.37 a7.5 7.5 0 1 0 15 0 a7.5 7.5 0 1 0 -15 0zM1469.51 1059.87 a7.5 7.5 0 1 0 15 0 a7.5 7.5 0 1 0 -15 0zM1469.51 984.87 a7.5 7.5 0 1 0 15 0 a7.5 7.5 0 1 0 -15 0zM1534.47 1172.37 a7.5 7.5 0 1 0 15 0 a7.5 7.5 0 1 0 -15 0zM1469.51 1209.87 a7.5 7.5 0 1 0 15 0 a7.5 7.5 0 1 0 -15 0zM1664.37 197.37 a7.5 7.5 0 1 0 15 0 a7.5 7.5 0 1 0 -15 0zM1664.37 272.37 a7.5 7.5 0 1 0 15 0 a7.5 7.5 0 1 0 -15 0zM1599.42 609.87 a7.5 7.5 0 1 0 15 0 a7.5 7.5 0 1 0 -15 0zM1664.37 647.37 a7.5 7.5 0 1 0 15 0 a7.5 7.5 0 1 0 -15 0zM1664.37 722.37 a7.5 7.5 0 1 0 15 0 a7.5 7.5 0 1 0 -15 0zM1599.42 759.87 a7.5 7.5 0 1 0 15 0 a7.5 7.5 0 1 0 -15 0zM1599.42 834.87 a7.5 7.5 0 1 0 15 0 a7.5 7.5 0 1 0 -15 0zM1664.37 872.37 a7.5 7.5 0 1 0 15 0 a7.5 7.5 0 1 0 -15 0zM1664.37 947.37 a7.5 7.5 0 1 0 15 0 a7.5 7.5 0 1 0 -15 0zM1534.47 872.37 a7.5 7.5 0 1 0 15 0 a7.5 7.5 0 1 0 -15 0zM1729.33 -65.13 a7.5 7.5 0 1 0 15 0 a7.5 7.5 0 1 0 -15 0zM1794.28 -27.63 a7.5 7.5 0 1 0 15 0 a7.5 7.5 0 1 0 -15 0zM1794.28 47.37 a7.5 7.5 0 1 0 15 0 a7.5 7.5 0 1 0 -15 0zM1729.33 84.87 a7.5 7.5 0 1 0 15 0 a7.5 7.5 0 1 0 -15 0zM1664.37 47.37 a7.5 7.5 0 1 0 15 0 a7.5 7.5 0 1 0 -15 0zM1664.37 -27.63 a7.5 7.5 0 1 0 15 0 a7.5 7.5 0 1 0 -15 0zM1859.23 84.87 a7.5 7.5 0 1 0 15 0 a7.5 7.5 0 1 0 -15 0zM1859.23 159.87 a7.5 7.5 0 1 0 15 0 a7.5 7.5 0 1 0 -15 0zM1794.28 197.37 a7.5 7.5 0 1 0 15 0 a7.5 7.5 0 1 0 -15 0zM1729.33 159.87 a7.5 7.5 0 1 0 15 0 a7.5 7.5 0 1 0 -15 0zM1794.28 272.37 a7.5 7.5 0 1 0 15 0 a7.5 7.5 0 1 0 -15 0zM1859.23 309.87 a7.5 7.5 0 1 0 15 0 a7.5 7.5 0 1 0 -15 0zM1859.23 384.87 a7.5 7.5 0 1 0 15 0 a7.5 7.5 0 1 0 -15 0zM1794.28 422.37 a7.5 7.5 0 1 0 15 0 a7.5 7.5 0 1 0 -15 0zM1729.33 384.87 a7.5 7.5 0 1 0 15 0 a7.5 7.5 0 1 0 -15 0zM1729.33 309.87 a7.5 7.5 0 1 0 15 0 a7.5 7.5 0 1 0 -15 0zM1794.28 497.37 a7.5 7.5 0 1 0 15 0 a7.5 7.5 0 1 0 -15 0zM1859.23 534.87 a7.5 7.5 0 1 0 15 0 a7.5 7.5 0 1 0 -15 0zM1859.23 609.87 a7.5 7.5 0 1 0 15 0 a7.5 7.5 0 1 0 -15 0zM1794.28 647.37 a7.5 7.5 0 1 0 15 0 a7.5 7.5 0 1 0 -15 0zM1729.33 609.87 a7.5 7.5 0 1 0 15 0 a7.5 7.5 0 1 0 -15 0zM1729.33 534.87 a7.5 7.5 0 1 0 15 0 a7.5 7.5 0 1 0 -15 0zM1794.28 722.37 a7.5 7.5 0 1 0 15 0 a7.5 7.5 0 1 0 -15 0zM1729.33 759.87 a7.5 7.5 0 1 0 15 0 a7.5 7.5 0 1 0 -15 0zM1859.23 759.87 a7.5 7.5 0 1 0 15 0 a7.5 7.5 0 1 0 -15 0zM1859.23 834.87 a7.5 7.5 0 1 0 15 0 a7.5 7.5 0 1 0 -15 0zM1794.28 872.37 a7.5 7.5 0 1 0 15 0 a7.5 7.5 0 1 0 -15 0zM1729.33 834.87 a7.5 7.5 0 1 0 15 0 a7.5 7.5 0 1 0 -15 0zM1794.28 947.37 a7.5 7.5 0 1 0 15 0 a7.5 7.5 0 1 0 -15 0zM1729.33 984.87 a7.5 7.5 0 1 0 15 0 a7.5 7.5 0 1 0 -15 0zM1859.23 984.87 a7.5 7.5 0 1 0 15 0 a7.5 7.5 0 1 0 -15 0zM1859.23 1059.87 a7.5 7.5 0 1 0 15 0 a7.5 7.5 0 1 0 -15 0zM1794.28 1097.37 a7.5 7.5 0 1 0 15 0 a7.5 7.5 0 1 0 -15 0zM1729.33 1059.87 a7.5 7.5 0 1 0 15 0 a7.5 7.5 0 1 0 -15 0zM1794.28 1172.37 a7.5 7.5 0 1 0 15 0 a7.5 7.5 0 1 0 -15 0zM1729.33 1209.87 a7.5 7.5 0 1 0 15 0 a7.5 7.5 0 1 0 -15 0zM1664.37 1172.37 a7.5 7.5 0 1 0 15 0 a7.5 7.5 0 1 0 -15 0zM1664.37 1097.37 a7.5 7.5 0 1 0 15 0 a7.5 7.5 0 1 0 -15 0zM1859.23 -65.13 a7.5 7.5 0 1 0 15 0 a7.5 7.5 0 1 0 -15 0zM1924.19 -27.63 a7.5 7.5 0 1 0 15 0 a7.5 7.5 0 1 0 -15 0zM1924.19 47.37 a7.5 7.5 0 1 0 15 0 a7.5 7.5 0 1 0 -15 0zM1924.19 272.37 a7.5 7.5 0 1 0 15 0 a7.5 7.5 0 1 0 -15 0zM1989.14 309.87 a7.5 7.5 0 1 0 15 0 a7.5 7.5 0 1 0 -15 0zM1989.14 384.87 a7.5 7.5 0 1 0 15 0 a7.5 7.5 0 1 0 -15 0zM1924.19 422.37 a7.5 7.5 0 1 0 15 0 a7.5 7.5 0 1 0 -15 0zM1924.19 497.37 a7.5 7.5 0 1 0 15 0 a7.5 7.5 0 1 0 -15 0zM1989.14 534.87 a7.5 7.5 0 1 0 15 0 a7.5 7.5 0 1 0 -15 0zM1989.14 609.87 a7.5 7.5 0 1 0 15 0 a7.5 7.5 0 1 0 -15 0zM1924.19 647.37 a7.5 7.5 0 1 0 15 0 a7.5 7.5 0 1 0 -15 0zM1924.19 722.37 a7.5 7.5 0 1 0 15 0 a7.5 7.5 0 1 0 -15 0zM1924.19 872.37 a7.5 7.5 0 1 0 15 0 a7.5 7.5 0 1 0 -15 0zM1924.19 947.37 a7.5 7.5 0 1 0 15 0 a7.5 7.5 0 1 0 -15 0zM1989.14 984.87 a7.5 7.5 0 1 0 15 0 a7.5 7.5 0 1 0 -15 0zM1989.14 1059.87 a7.5 7.5 0 1 0 15 0 a7.5 7.5 0 1 0 -15 0zM1924.19 1097.37 a7.5 7.5 0 1 0 15 0 a7.5 7.5 0 1 0 -15 0zM1989.14 -65.13 a7.5 7.5 0 1 0 15 0 a7.5 7.5 0 1 0 -15 0zM2054.1 -27.63 a7.5 7.5 0 1 0 15 0 a7.5 7.5 0 1 0 -15 0zM2054.1 47.37 a7.5 7.5 0 1 0 15 0 a7.5 7.5 0 1 0 -15 0zM1989.14 84.87 a7.5 7.5 0 1 0 15 0 a7.5 7.5 0 1 0 -15 0zM1989.14 159.87 a7.5 7.5 0 1 0 15 0 a7.5 7.5 0 1 0 -15 0zM2054.1 197.37 a7.5 7.5 0 1 0 15 0 a7.5 7.5 0 1 0 -15 0zM2054.1 272.37 a7.5 7.5 0 1 0 15 0 a7.5 7.5 0 1 0 -15 0zM1924.19 197.37 a7.5 7.5 0 1 0 15 0 a7.5 7.5 0 1 0 -15 0zM2119.05 309.87 a7.5 7.5 0 1 0 15 0 a7.5 7.5 0 1 0 -15 0zM2119.05 384.87 a7.5 7.5 0 1 0 15 0 a7.5 7.5 0 1 0 -15 0zM2054.1 422.37 a7.5 7.5 0 1 0 15 0 a7.5 7.5 0 1 0 -15 0zM2054.1 647.37 a7.5 7.5 0 1 0 15 0 a7.5 7.5 0 1 0 -15 0zM2054.1 722.37 a7.5 7.5 0 1 0 15 0 a7.5 7.5 0 1 0 -15 0zM1989.14 759.87 a7.5 7.5 0 1 0 15 0 a7.5 7.5 0 1 0 -15 0zM2054.1 1097.37 a7.5 7.5 0 1 0 15 0 a7.5 7.5 0 1 0 -15 0zM2054.1 1172.37 a7.5 7.5 0 1 0 15 0 a7.5 7.5 0 1 0 -15 0zM1989.14 1209.87 a7.5 7.5 0 1 0 15 0 a7.5 7.5 0 1 0 -15 0zM1924.19 1172.37 a7.5 7.5 0 1 0 15 0 a7.5 7.5 0 1 0 -15 0z" fill="rgba(236, 239, 244, 0.37)"></path><path d="M9.39 117.45L52.69 142.45L52.69 192.45L9.39 217.45L-33.91 192.45L-33.91 142.45zM9.39 267.45L52.69 292.45L52.69 342.45L9.39 367.45L-33.91 342.45L-33.91 292.45zM52.69 492.45L96 517.45L96 567.45L52.69 592.45L9.39 567.45L9.39 517.45zM9.39 567.45L52.69 592.45L52.69 642.45L9.39 667.45L-33.91 642.45L-33.91 592.45zM52.69 642.45L96 667.45L96 717.45L52.69 742.45L9.39 717.45L9.39 667.45zM96 -32.55L139.3 -7.55L139.3 42.45L96 67.45L52.69 42.45L52.69 -7.55zM96 117.45L139.3 142.45L139.3 192.45L96 217.45L52.69 192.45L52.69 142.45zM96 567.45L139.3 592.45L139.3 642.45L96 667.45L52.69 642.45L52.69 592.45zM96 717.45L139.3 742.45L139.3 792.45L96 817.45L52.69 792.45L52.69 742.45zM139.3 792.45L182.6 817.45L182.6 867.45L139.3 892.45L96 867.45L96 817.45zM139.3 942.45L182.6 967.45L182.6 1017.45L139.3 1042.45L96 1017.45L96 967.45zM182.6 267.45L225.9 292.45L225.9 342.45L182.6 367.45L139.3 342.45L139.3 292.45zM225.9 792.45L269.2 817.45L269.2 867.45L225.9 892.45L182.6 867.45L182.6 817.45zM269.2 417.45L312.51 442.45L312.51 492.45L269.2 517.45L225.9 492.45L225.9 442.45zM312.51 492.45L355.81 517.45L355.81 567.45L312.51 592.45L269.2 567.45L269.2 517.45zM312.51 792.45L355.81 817.45L355.81 867.45L312.51 892.45L269.2 867.45L269.2 817.45zM399.11 42.45L442.42 67.45L442.42 117.45L399.11 142.45L355.81 117.45L355.81 67.45zM355.81 267.45L399.11 292.45L399.11 342.45L355.81 367.45L312.51 342.45L312.51 292.45zM355.81 567.45L399.11 592.45L399.11 642.45L355.81 667.45L312.51 642.45L312.51 592.45zM399.11 942.45L442.42 967.45L442.42 1017.45L399.11 1042.45L355.81 1017.45L355.81 967.45zM442.42 -32.55L485.72 -7.55L485.72 42.45L442.42 67.45L399.11 42.45L399.11 -7.55zM485.72 192.45L529.02 217.45L529.02 267.45L485.72 292.45L442.42 267.45L442.42 217.45zM442.42 717.45L485.72 742.45L485.72 792.45L442.42 817.45L399.11 792.45L399.11 742.45zM442.42 867.45L485.72 892.45L485.72 942.45L442.42 967.45L399.11 942.45L399.11 892.45zM529.02 267.45L572.32 292.45L572.32 342.45L529.02 367.45L485.72 342.45L485.72 292.45zM529.02 717.45L572.32 742.45L572.32 792.45L529.02 817.45L485.72 792.45L485.72 742.45zM572.32 792.45L615.63 817.45L615.63 867.45L572.32 892.45L529.02 867.45L529.02 817.45zM529.02 867.45L572.32 892.45L572.32 942.45L529.02 967.45L485.72 942.45L485.72 892.45zM529.02 1017.45L572.32 1042.45L572.32 1092.45L529.02 1117.45L485.72 1092.45L485.72 1042.45zM615.63 -32.55L658.93 -7.55L658.93 42.45L615.63 67.45L572.32 42.45L572.32 -7.55zM615.63 117.45L658.93 142.45L658.93 192.45L615.63 217.45L572.32 192.45L572.32 142.45zM615.63 567.45L658.93 592.45L658.93 642.45L615.63 667.45L572.32 642.45L572.32 592.45zM658.93 642.45L702.23 667.45L702.23 717.45L658.93 742.45L615.63 717.45L615.63 667.45zM615.63 717.45L658.93 742.45L658.93 792.45L615.63 817.45L572.32 792.45L572.32 742.45zM658.93 792.45L702.23 817.45L702.23 867.45L658.93 892.45L615.63 867.45L615.63 817.45zM615.63 867.45L658.93 892.45L658.93 942.45L615.63 967.45L572.32 942.45L572.32 892.45zM615.63 1017.45L658.93 1042.45L658.93 1092.45L615.63 1117.45L572.32 1092.45L572.32 1042.45zM702.23 -32.55L745.53 -7.55L745.53 42.45L702.23 67.45L658.93 42.45L658.93 -7.55zM745.53 342.45L788.84 367.45L788.84 417.45L745.53 442.45L702.23 417.45L702.23 367.45zM702.23 717.45L745.53 742.45L745.53 792.45L702.23 817.45L658.93 792.45L658.93 742.45zM745.53 792.45L788.84 817.45L788.84 867.45L745.53 892.45L702.23 867.45L702.23 817.45zM788.84 -32.55L832.14 -7.55L832.14 42.45L788.84 67.45L745.53 42.45L745.53 -7.55zM832.14 642.45L875.44 667.45L875.44 717.45L832.14 742.45L788.84 717.45L788.84 667.45zM788.84 1017.45L832.14 1042.45L832.14 1092.45L788.84 1117.45L745.53 1092.45L745.53 1042.45zM918.74 42.45L962.05 67.45L962.05 117.45L918.74 142.45L875.44 117.45L875.44 67.45zM875.44 567.45L918.74 592.45L918.74 642.45L875.44 667.45L832.14 642.45L832.14 592.45zM875.44 717.45L918.74 742.45L918.74 792.45L875.44 817.45L832.14 792.45L832.14 742.45zM875.44 867.45L918.74 892.45L918.74 942.45L875.44 967.45L832.14 942.45L832.14 892.45zM1005.35 192.45L1048.65 217.45L1048.65 267.45L1005.35 292.45L962.05 267.45L962.05 217.45zM962.05 417.45L1005.35 442.45L1005.35 492.45L962.05 517.45L918.74 492.45L918.74 442.45zM1005.35 492.45L1048.65 517.45L1048.65 567.45L1005.35 592.45L962.05 567.45L962.05 517.45zM1005.35 642.45L1048.65 667.45L1048.65 717.45L1005.35 742.45L962.05 717.45L962.05 667.45zM962.05 867.45L1005.35 892.45L1005.35 942.45L962.05 967.45L918.74 942.45L918.74 892.45zM1048.65 717.45L1091.95 742.45L1091.95 792.45L1048.65 817.45L1005.35 792.45L1005.35 742.45zM1048.65 867.45L1091.95 892.45L1091.95 942.45L1048.65 967.45L1005.35 942.45L1005.35 892.45zM1091.95 942.45L1135.26 967.45L1135.26 1017.45L1091.95 1042.45L1048.65 1017.45L1048.65 967.45zM1265.16 192.45L1308.47 217.45L1308.47 267.45L1265.16 292.45L1221.86 267.45L1221.86 217.45zM1221.86 267.45L1265.16 292.45L1265.16 342.45L1221.86 367.45L1178.56 342.45L1178.56 292.45zM1265.16 342.45L1308.47 367.45L1308.47 417.45L1265.16 442.45L1221.86 417.45L1221.86 367.45zM1265.16 942.45L1308.47 967.45L1308.47 1017.45L1265.16 1042.45L1221.86 1017.45L1221.86 967.45zM1351.77 42.45L1395.07 67.45L1395.07 117.45L1351.77 142.45L1308.47 117.45L1308.47 67.45zM1308.47 267.45L1351.77 292.45L1351.77 342.45L1308.47 367.45L1265.16 342.45L1265.16 292.45zM1308.47 567.45L1351.77 592.45L1351.77 642.45L1308.47 667.45L1265.16 642.45L1265.16 592.45zM1351.77 642.45L1395.07 667.45L1395.07 717.45L1351.77 742.45L1308.47 717.45L1308.47 667.45zM1308.47 1017.45L1351.77 1042.45L1351.77 1092.45L1308.47 1117.45L1265.16 1092.45L1265.16 1042.45zM1395.07 117.45L1438.37 142.45L1438.37 192.45L1395.07 217.45L1351.77 192.45L1351.77 142.45zM1438.37 342.45L1481.68 367.45L1481.68 417.45L1438.37 442.45L1395.07 417.45L1395.07 367.45zM1438.37 792.45L1481.68 817.45L1481.68 867.45L1438.37 892.45L1395.07 867.45L1395.07 817.45zM1395.07 867.45L1438.37 892.45L1438.37 942.45L1395.07 967.45L1351.77 942.45L1351.77 892.45zM1481.68 -32.55L1524.98 -7.55L1524.98 42.45L1481.68 67.45L1438.37 42.45L1438.37 -7.55zM1524.98 192.45L1568.28 217.45L1568.28 267.45L1524.98 292.45L1481.68 267.45L1481.68 217.45zM1481.68 717.45L1524.98 742.45L1524.98 792.45L1481.68 817.45L1438.37 792.45L1438.37 742.45zM1481.68 867.45L1524.98 892.45L1524.98 942.45L1481.68 967.45L1438.37 942.45L1438.37 892.45zM1568.28 117.45L1611.58 142.45L1611.58 192.45L1568.28 217.45L1524.98 192.45L1524.98 142.45zM1568.28 267.45L1611.58 292.45L1611.58 342.45L1568.28 367.45L1524.98 342.45L1524.98 292.45zM1568.28 567.45L1611.58 592.45L1611.58 642.45L1568.28 667.45L1524.98 642.45L1524.98 592.45zM1568.28 717.45L1611.58 742.45L1611.58 792.45L1568.28 817.45L1524.98 792.45L1524.98 742.45zM1654.89 -32.55L1698.19 -7.55L1698.19 42.45L1654.89 67.45L1611.58 42.45L1611.58 -7.55zM1654.89 267.45L1698.19 292.45L1698.19 342.45L1654.89 367.45L1611.58 342.45L1611.58 292.45zM1654.89 417.45L1698.19 442.45L1698.19 492.45L1654.89 517.45L1611.58 492.45L1611.58 442.45zM1698.19 642.45L1741.49 667.45L1741.49 717.45L1698.19 742.45L1654.89 717.45L1654.89 667.45zM1654.89 717.45L1698.19 742.45L1698.19 792.45L1654.89 817.45L1611.58 792.45L1611.58 742.45zM1698.19 942.45L1741.49 967.45L1741.49 1017.45L1698.19 1042.45L1654.89 1017.45L1654.89 967.45zM1654.89 1017.45L1698.19 1042.45L1698.19 1092.45L1654.89 1117.45L1611.58 1092.45L1611.58 1042.45zM1741.49 -32.55L1784.79 -7.55L1784.79 42.45L1741.49 67.45L1698.19 42.45L1698.19 -7.55zM1784.79 42.45L1828.1 67.45L1828.1 117.45L1784.79 142.45L1741.49 117.45L1741.49 67.45zM1784.79 192.45L1828.1 217.45L1828.1 267.45L1784.79 292.45L1741.49 267.45L1741.49 217.45zM1741.49 267.45L1784.79 292.45L1784.79 342.45L1741.49 367.45L1698.19 342.45L1698.19 292.45zM1784.79 342.45L1828.1 367.45L1828.1 417.45L1784.79 442.45L1741.49 417.45L1741.49 367.45zM1784.79 792.45L1828.1 817.45L1828.1 867.45L1784.79 892.45L1741.49 867.45L1741.49 817.45zM1871.4 942.45L1914.7 967.45L1914.7 1017.45L1871.4 1042.45L1828.1 1017.45L1828.1 967.45zM1958 192.45L2001.31 217.45L2001.31 267.45L1958 292.45L1914.7 267.45L1914.7 217.45zM1914.7 267.45L1958 292.45L1958 342.45L1914.7 367.45L1871.4 342.45L1871.4 292.45zM1958 342.45L2001.31 367.45L2001.31 417.45L1958 442.45L1914.7 417.45L1914.7 367.45zM1914.7 417.45L1958 442.45L1958 492.45L1914.7 517.45L1871.4 492.45L1871.4 442.45zM1914.7 717.45L1958 742.45L1958 792.45L1914.7 817.45L1871.4 792.45L1871.4 742.45zM1958 792.45L2001.31 817.45L2001.31 867.45L1958 892.45L1914.7 867.45L1914.7 817.45zM1914.7 867.45L1958 892.45L1958 942.45L1914.7 967.45L1871.4 942.45L1871.4 892.45z" stroke="rgba(229, 233, 240, 0.44)" stroke-width="2"></path></g><defs><mask id="SvgjsMask1046"><rect width="1980" height="1080" fill="#ffffff"></rect></mask></defs></svg>